<?xml version="1.0" standalone="no"?>
<!DOCTYPE svg PUBLIC "-//W3C//DTD SVG 20010904//EN"
 "http://www.w3.org/TR/2001/REC-SVG-20010904/DTD/svg10.dtd">
<svg version="1.0" xmlns="http://www.w3.org/2000/svg"
 width="300.000000pt" height="118.000000pt" viewBox="0 0 300.000000 118.000000"
 preserveAspectRatio="xMidYMid meet">
<metadata>
Created by potrace 1.10, written by Peter Selinger 2001-2011
</metadata>
<g transform="translate(0.000000,118.000000) scale(0.100000,-0.100000)"
fill="#000000" stroke="none">
<path d="M460 1131 c-186 -60 -320 -196 -374 -380 -18 -63 -21 -222 -5 -291
41 -178 199 -338 389 -394 65 -20 206 -22 276 -5 239 57 408 261 421 509 14
253 -140 480 -379 555 -99 31 -242 34 -328 6z m270 -24 c25 -7 50 -15 55 -18
6 -4 22 -9 36 -12 70 -17 187 -121 247 -220 53 -88 83 -265 59 -352 -3 -11
-10 -39 -15 -63 -18 -78 -107 -202 -187 -262 -42 -31 -109 -63 -168 -81 -80
-24 -240 -21 -307 7 -179 73 -305 214 -339 382 -15 73 -14 188 3 243 19 62 73
170 96 191 10 9 24 26 32 36 19 27 107 92 148 110 112 49 247 64 340 39z"/>
<path d="M361 904 c-21 -26 -22 -36 -21 -245 1 -190 4 -223 20 -256 36 -75
102 -123 171 -126 54 -2 73 20 79 91 5 54 21 74 29 35 7 -34 53 -82 104 -108
67 -33 100 -32 127 3 21 25 22 36 18 157 -3 125 -5 132 -34 175 -53 79 -165
119 -212 77 -23 -21 -27 -17 -37 43 -11 68 -38 108 -100 148 -22 14 -58 27
-81 30 -36 3 -44 0 -63 -24z m139 -43 c73 -58 75 -69 75 -326 l0 -230 -39 3
c-53 4 -89 25 -123 69 l-28 36 -5 240 c-3 131 -3 241 0 244 12 12 88 -10 120
-36z m260 -186 c76 -39 100 -100 100 -255 l0 -120 -27 0 c-37 1 -103 31 -130
61 -36 40 -43 74 -43 210 l0 130 38 -7 c20 -4 48 -12 62 -19z"/>
<path d="M1380 943 c-92 -48 -109 -187 -29 -229 37 -18 112 -18 149 1 34 17
35 22 16 48 -13 17 -16 17 -49 1 -30 -14 -38 -15 -63 -3 -23 11 -30 22 -32 50
-4 51 28 89 77 89 20 0 42 -5 48 -11 9 -9 19 -8 39 6 l26 17 -20 21 c-29 29
-115 34 -162 10z"/>
<path d="M1663 918 c-14 -24 -50 -80 -80 -126 -29 -45 -53 -85 -53 -87 0 -3
16 -5 35 -5 28 0 38 5 47 25 10 22 17 25 69 25 54 0 59 -2 65 -25 5 -21 12
-25 41 -25 28 0 33 3 29 18 -3 9 -17 68 -32 130 l-26 112 -34 0 c-29 0 -38 -6
-61 -42z m57 -55 c0 -10 3 -28 6 -40 6 -21 3 -23 -30 -23 l-37 0 22 40 c24 43
39 51 39 23z"/>
<path d="M1872 845 c-13 -63 -25 -122 -28 -130 -5 -12 2 -15 29 -15 34 0 35 1
42 46 3 26 10 56 15 68 9 23 7 26 41 -61 14 -36 42 -27 83 27 21 28 41 49 43
47 2 -3 -2 -32 -10 -66 l-14 -61 33 0 c30 0 34 3 40 38 3 20 15 77 25 127 10
49 19 90 19 92 0 2 -13 3 -29 3 -25 0 -39 -12 -83 -68 -29 -38 -57 -71 -62
-73 -4 -2 -21 28 -36 66 -25 62 -31 70 -57 73 l-29 3 -22 -116z"/>
<path d="M2219 831 l-26 -131 38 0 c35 0 38 2 41 33 3 31 5 32 58 37 91 9 120
35 120 109 0 56 -28 73 -128 79 l-77 4 -26 -131z m160 55 c24 -29 -12 -66 -65
-66 -26 0 -27 2 -18 49 6 27 11 31 39 31 18 0 38 -6 44 -14z"/>
<path d="M2506 948 c-10 -33 -26 -135 -26 -165 0 -52 37 -83 97 -83 94 0 124
35 151 168 l18 93 -35 -3 c-35 -3 -35 -4 -48 -68 -21 -105 -22 -109 -47 -126
-35 -22 -66 -4 -66 39 0 29 13 96 26 140 4 14 -1 17 -31 17 -20 0 -37 -6 -39
-12z"/>
<path d="M2830 953 c-34 -12 -60 -47 -60 -79 0 -38 23 -59 83 -75 28 -7 37
-15 35 -27 -4 -23 -60 -28 -97 -9 -27 13 -29 13 -45 -14 l-16 -27 36 -12 c20
-7 61 -10 90 -8 71 6 106 36 102 88 -3 32 -7 37 -58 57 -30 12 -56 28 -58 37
-5 21 40 31 79 17 18 -6 33 -10 34 -9 1 2 8 13 14 26 11 20 9 23 -14 32 -28
11 -100 12 -125 3z"/>
<path d="M2231 531 c-7 -5 -40 -58 -72 -117 -32 -60 -59 -104 -59 -99 -1 14
-19 143 -25 183 -3 17 -12 32 -19 32 -7 0 -39 -48 -70 -106 -32 -58 -60 -104
-62 -102 -2 3 -8 40 -14 84 -14 107 -18 124 -32 124 -11 0 -10 -10 13 -172 16
-108 30 -104 99 26 54 102 70 119 70 71 0 -13 5 -58 11 -100 16 -108 29 -101
112 52 37 69 66 127 64 129 -1 2 -9 -1 -16 -5z"/>
<path d="M2323 526 c-75 -34 -67 -103 16 -131 66 -21 78 -37 57 -70 -14 -21
-24 -25 -64 -25 -26 0 -57 7 -69 15 -17 12 -22 12 -26 1 -10 -25 64 -50 117
-41 49 10 78 40 74 78 -3 32 -8 36 -90 71 -29 12 -38 21 -38 40 0 30 26 46 75
46 20 0 45 -5 56 -10 15 -8 19 -7 19 4 0 19 -9 24 -56 31 -24 3 -52 -1 -71 -9z"/>
<path d="M1350 525 c0 -3 -12 -59 -26 -126 -14 -67 -23 -123 -20 -126 13 -13
24 15 41 106 10 56 21 101 25 101 3 0 31 -44 62 -97 30 -54 62 -99 69 -101 11
-2 21 30 39 123 19 91 22 125 14 125 -15 0 -18 -9 -40 -123 -11 -57 -20 -84
-26 -75 -4 7 -32 55 -61 105 -28 51 -58 93 -64 93 -7 0 -13 -2 -13 -5z"/>
<path d="M1650 526 c0 -5 -38 -193 -45 -223 -5 -21 -2 -22 85 -25 65 -2 91 0
95 10 3 9 -16 12 -76 12 l-81 0 7 33 c14 71 11 69 83 66 42 -2 67 2 70 9 2 7
-20 12 -65 14 l-69 3 9 43 8 42 74 0 c41 0 77 5 80 10 4 6 -27 10 -84 10 -50
0 -91 -2 -91 -4z"/>
</g>
</svg>
